<?xml version="1.0" encoding="utf-8"?>
<!-- Generator: Adobe Illustrator 22.0.1, SVG Export Plug-In . SVG Version: 6.00 Build 0)  -->
<svg version="1.1" id="图层_1" xmlns="http://www.w3.org/2000/svg" xmlns:xlink="http://www.w3.org/1999/xlink" x="0px" y="0px"
	 viewBox="0 0 41.8 32.2" style="enable-background:new 0 0 41.8 32.2;" xml:space="preserve">
<style type="text/css">
	.st0{fill:#F58B23;}
</style>
<title>广播</title>
<desc>Created with Sketch.</desc>
<g id="Page-1">
	<g id="_x30_3根据疾病做用药方案推荐-copy-4" transform="translate(-54.000000, -170.000000)">
		<path id="广播" class="st0" d="M81,181.2c-0.8,0.1-1.3,0.6-1.1,1.2l0,0c0.4,1.2,0.6,2.4,0.6,3.7c0,1.2-0.2,2.5-0.6,3.7
			c-0.2,0.5,0.3,1,1.1,1.2c0.1,0,0.2,0,0.3,0c0.7,0,1.3-0.3,1.4-0.8c0.5-1.4,0.7-2.8,0.7-4.1c0-1.4-0.2-2.8-0.7-4.1
			C82.5,181.4,81.8,181.1,81,181.2z M91.4,172.9c-0.3-0.5-1.2-0.7-1.9-0.5c-0.7,0.2-1,0.8-0.7,1.3h0c2.7,3.9,4.1,8.1,4.1,12.3
			c0,4.2-1.4,8.4-4.1,12.3c-0.3,0.5,0,1.1,0.7,1.3c0.2,0.1,0.4,0.1,0.6,0.1c0.5,0,1.1-0.2,1.3-0.6c2.9-4.2,4.4-8.7,4.4-13.2
			C95.8,181.6,94.3,177.1,91.4,172.9z M87.6,178.2c-0.3-0.5-1.1-0.8-1.8-0.6c-0.8,0.2-1.2,0.7-0.9,1.2c1.2,2.3,1.8,4.7,1.8,7.2
			c0,2.5-0.6,4.9-1.8,7.2c-0.3,0.5,0.1,1.1,0.9,1.2c0.2,0,0.3,0.1,0.5,0.1c0.6,0,1.2-0.3,1.4-0.7c1.3-2.5,2-5.2,2-7.9
			C89.5,183.4,88.9,180.7,87.6,178.2z M74.3,170.5c-2.1,1.3-7.3,5.8-10.3,8.4h-8.9c-0.6,0-1.1,0.5-1.1,1.1v12.4
			c0,0.6,0.5,1.1,1.1,1.1h9.1c3,2.6,8.1,7,10.1,8.2c2.6,1.6,2.9-1.1,2.9-1.1v-28.9C77.2,171.7,76.8,168.9,74.3,170.5z"/>
	</g>
</g>
</svg>
