<?xml version="1.0" encoding="utf-8"?>
<!-- Generator: Adobe Illustrator 22.0.1, SVG Export Plug-In . SVG Version: 6.00 Build 0)  -->
<svg version="1.1" id="图层_1" xmlns="http://www.w3.org/2000/svg" xmlns:xlink="http://www.w3.org/1999/xlink" x="0px" y="0px"
	 viewBox="0 0 26.6 22" style="enable-background:new 0 0 26.6 22;" xml:space="preserve">
<style type="text/css">
	.st0{fill:#F58B23;}
</style>
<title>角色</title>
<desc>Created with Sketch.</desc>
<g id="Page-1">
	<g id="小程序2.0版本_xFF0D_普通追问-copy-3" transform="translate(-565.000000, -190.000000)">
		<path id="角色" class="st0" d="M591.6,200.9c0-0.4-0.2-0.8-0.5-1.1l-9.5-9.4c-0.6-0.6-1.6-0.6-2.1,0c-0.6,0.6-0.6,1.6,0,2.1
			l7,6.9h-20c-0.8,0-1.5,0.7-1.5,1.5c0,0.8,0.7,1.5,1.5,1.5h20.1l-7,7.1c-0.6,0.6-0.6,1.5,0,2.1c0.2,0.3,0.6,0.4,1,0.4
			s0.7-0.1,1-0.4l9.5-9.5C591.4,201.7,591.6,201.4,591.6,200.9z"/>
	</g>
</g>
</svg>
